<svg xmlns="http://www.w3.org/2000/svg" viewBox="0 0 1162 868" fill="currentColor" role="img" aria-label="DuelList logo">
    <title>DuelList logo</title>
    <path
        d="M625.5 106.9c-7 2.6-20.4 8.4-24.3 10.4-3.2 1.8-11.8 4.9-27.7 10.2-4.4 1.5-10.2 3.6-13 4.7-2.7 1.1-8.8 3.2-13.5 4.7s-10.3 3.7-12.6 4.9c-2.2 1.1-6.7 2.8-10.1 3.6-7.1 1.9-14.9 6-16.8 9-2 3.1-6.1 15.8-8.5 25.9-1.1 4.9-2.7 10.2-3.6 11.9-.9 1.8-2.7 7.1-4 12-1.3 4.8-3.2 10.5-4.2 12.6-1.1 2-2.9 7.7-4.1 12.6-1.2 4.8-3 10.5-4 12.5s-2.9 8.1-4.1 13.6-3 12-4 14.5-2.7 9.1-3.9 14.7-3 12.1-4 14.5c-1.1 2.4-2.7 8.1-3.6 12.8s-2.7 11.9-4 16c-1.2 4.1-3.3 12-4.5 17.5-1.3 5.5-3.1 11.9-4.1 14.3-1 2.3-2.8 8.6-3.8 14-1.1 5.3-2.9 12-4 14.8s-2.7 8.8-3.5 13.5c-.9 4.6-2.9 12.7-4.5 17.9-3.5 11.4-6.1 21.2-6.8 26.2-.4 3 0 4.1 2.1 6.2 2.2 2.3 3.4 2.6 9.3 2.7 3.7.1 28.9.4 55.8.8 51.8.7 53.5.8 53.5 5.3 0 1.2-.9 4-2 6.3-1.1 2.2-2.9 7.8-4 12.5-1.2 4.7-3 11.2-4 14.5-1.1 3.3-2.9 10.7-4 16.3-1.1 5.7-3 13.6-4.4 17.5-1.4 4-3.2 11.7-4.1 17.2-.8 5.5-2.4 12.7-3.5 16-1 3.3-2.6 10.9-3.6 16.9-.9 6-2.5 13.4-3.5 16.4S509.1 605 508 611c-1.1 5.9-3.1 14.5-4.5 19-1.4 4.6-3.2 12.2-4 16.9-.9 4.7-2.9 13.1-4.4 18.6-1.6 5.5-3.6 15.4-4.5 22.1-.9 6.6-2.5 14.9-3.6 18.4-2.4 7.4-2.6 12.6-.6 13.3 2.4.9 10.5-5.2 12.7-9.5 1.1-2.2 3.4-5.9 5-8.1s2.9-4.6 2.9-5.2c0-.7 1.5-3.5 3.3-6.1 1.8-2.7 3.9-6.4 4.7-8.3.7-1.8 2.4-4.6 3.7-6.1 1.3-1.6 3-4.5 3.9-6.6s2.6-5.2 3.9-6.8c1.3-1.7 3.3-5.4 4.5-8.1 1.2-2.8 3-5.9 4-7s2.8-4.2 3.9-6.8 3.1-6.2 4.4-8 3-4.8 3.7-6.7c.8-1.9 2.6-5.3 4-7.5 1.5-2.2 3.2-5.6 3.9-7.5.6-1.9 2.7-5.7 4.6-8.4s3.5-5.5 3.5-6.2 1.1-2.5 2.4-4.1c1.3-1.5 3.7-5.6 5.4-9 1.8-3.4 3.6-6.5 4.2-6.8.6-.4 2.2-3.1 3.5-6.1 1.3-2.9 3.5-6.9 4.9-8.7 1.4-1.9 2.6-3.8 2.6-4.3 0-.6 1.4-3.2 3.1-6 3.1-4.7 6.2-10.3 13.5-24.3 1.8-3.5 4-7.1 4.8-8s2.4-3.9 3.6-6.6c1.2-2.8 3-5.9 4-7 1.1-1.1 2.6-3.8 3.5-5.9s3.2-6.1 5.1-8.8c1.9-2.8 3.4-5.6 3.4-6.3 0-.8 1.1-2.7 2.5-4.3 1.4-1.7 3.7-5.5 5.1-8.6s3-5.8 3.5-6.2c.6-.3 2.6-3.8 4.5-7.7s4-7.8 4.8-8.6c.8-.9 2.2-3.6 3.2-6.1s3.3-6.7 5.1-9.4c1.8-2.6 3.3-5.3 3.3-6 0-.6 1.8-3.7 4-7 2.2-3.2 4-6.4 4-7.2 0-.7 1.1-2.5 2.4-4.1 1.3-1.5 3.6-5.3 5.1-8.3s3.8-6.9 5-8.5c1.3-1.7 2.6-4 2.9-5.2.4-1.2 2.2-4.4 4-7 1.8-2.7 3.8-6.4 4.6-8.3s2.9-5.7 4.7-8.5c1.8-2.7 3.3-5.5 3.3-6 0-.6 1.4-2.4 3-4 3.7-3.5 4-7.9.9-9.6-1.6-.8-20.5-1.2-65.9-1.4-69-.4-67.6-.2-71.4-5.7-2.2-3.1-2-5.2.8-8.5 1.3-1.6 3.2-5.6 4.1-8.8 1-3.3 3-8.5 4.5-11.5s3.5-8.2 4.4-11.5c1-3.3 2.4-7 3.2-8.2.7-1.2 2.3-5.7 3.5-10s3.2-10.2 4.6-13.1c1.3-2.9 3.2-8.5 4.2-12.5 1-3.9 2.8-9.3 4-11.9s2.9-7.6 3.7-11c.9-3.5 2.7-8.3 3.9-10.8s3.2-8 4.4-12.3 3-9.5 4-11.6c1.1-2 2.7-6.5 3.6-10 .9-3.4 2.7-8.6 4-11.4 1.3-2.9 3.3-9 4.5-13.6s3-10.1 4-12.1 2.6-7.7 3.5-12.6c1-4.9 2.8-11 4.1-13.6 1.4-2.7 2.7-6.8 3-9.2.6-3.8.3-4.5-1.7-6-3.1-2.1-8.2-2-14.4.3m73 20.4c-2.3 1.3-4.7 3.7-5.7 5.7-1 1.9-2.5 5.1-3.4 7s-3.5 6.9-5.7 11c-8.2 15.5-10.6 20.6-10.7 22.7 0 3.5 5.9 3.2 10.2-.6 1.8-1.5 5.6-4 8.3-5.5 15.7-8.4 27.5-19.6 27.5-26.2 0-5-4.1-10.4-10.2-13.5-3.2-1.6-5.9-2.9-6-2.9-.2 0-2.1 1-4.3 2.3m-248.2 25.6-5.3 4.9v7.3c0 7.5 1.4 10.8 7.4 17.6 2.3 2.6 9.6 3.2 11.5 1 1.1-1.5 5.5-13.5 7.2-20 1.1-4.4.1-6.8-4.4-10.6-7.5-6.5-9.7-6.5-16.4-.2" />
    <path
        d="M96.5 192.7c-1.1.3-2.8 1.2-3.7 2.1-1.7 1.4-1.8 14-1.8 238.4v236.9l2.5 2.5 2.6 2.6 93.7-.5c99.6-.5 117.5-1.2 135.1-5.6 4.2-1.1 11.9-2.7 17.1-3.6s11.9-2.5 15-3.7c3-1.1 9.7-3.1 14.9-4.5 5.2-1.3 11-3.2 13-4.2 2-1.1 5.9-2.6 8.6-3.4 5.8-1.7 24-11 27-13.6 1.1-1 3.1-2.4 4.4-3.1s5.8-4 9.9-7.4c4-3.3 8.8-7.1 10.5-8.3s4.3-3.5 5.7-5c1.5-1.5 3.8-3.8 5.1-4.9 5.9-5.3 19.9-23.4 19.9-25.6 0-.5 1.3-2.8 3-5.1 1.6-2.3 3.9-6.9 5.1-10.2s2.8-6.9 3.5-8 2.2-5.6 3.3-10 3-10.7 4.1-14 3.2-12.4 4.5-20.3c1.4-7.9 3-15.2 3.5-16.2 1.3-2.4 1.3-7.6 0-10.1-2.5-4.6-3.9-4.7-53.6-5.4-25.8-.4-48.5-1.1-50.5-1.6-4.7-1.2-10.9-7.8-10.9-11.7 0-1.5 1.2-5.2 2.6-8.2s3.2-8.6 4-12.5c.8-3.8 2.8-11.7 4.4-17.5s3.4-13.4 4-16.9c.6-3.6 2.2-9.3 3.5-12.7s3.1-9.9 4-14.5 2.9-12.5 4.5-17.4c1.5-5 3.5-13 4.5-17.8.9-4.9 2.5-11.2 3.6-13.9 1.1-2.8 3.1-10.3 4.4-16.7 1.4-6.4 3.6-15.7 4.9-20.6 2.4-8.8 3.2-17.3 1.8-20.7-3-7.3-26.5-29.7-40.4-38.5-2.8-1.8-6-4.1-7.2-5.1-1.2-1.1-3.7-2.7-5.6-3.7s-4.3-2.5-5.4-3.4c-4.8-4.2-32.5-18.2-44.1-22.1-12.4-4.3-48.4-11.8-63-13.1-12.4-1.1-168.4-2.2-172-1.2m174.2 104.4c4.5.5 9.9 1.6 12 2.4 14.9 5.5 24.4 10.6 32.7 17.7 6.3 5.3 13.5 13 15.3 16.3.9 1.6 2.6 4.2 3.9 5.7 1.2 1.5 3.2 5.4 4.3 8.5 1.1 3.2 3 7.5 4.1 9.5 1.8 3.4 6 19.4 9.5 36.8.8 3.6 1.9 14 2.6 23.1 1.3 17.7.3 39.8-2.5 52.4-3 13.6-7.8 29.8-10.1 34.3-1.3 2.6-3.6 7.2-5 10.2-5.6 12.1-13.3 21-29.7 34.1-3.8 3-22.6 12.3-27.8 13.7-1.9.5-5.9 1.9-8.8 3.1-6.5 2.6-30.3 5.6-36.7 4.7-3.2-.5-4.8-1.4-5.7-2.9-.9-1.7-1.1-34.3-1.1-135 .2-127.1.2-133 2-134.9 1.7-1.9 2.6-2 17.3-1.3 8.5.3 19.2 1.1 23.7 1.6M825 196c-76.8 1.2-84.5 2.7-97.1 19.4-2.5 3.4-12.9 32.3-12.9 36.1 0 2-8.6 12.9-11.4 14.4-2.6 1.4-8.6 9.1-8.6 11.1 0 .6 1.6 1.8 3.5 2.6 2.7 1.1 9.6 1.4 34.3 1.4 19 0 32.1.4 33.9 1 3.4 1.2 5.3 4.5 5.3 9.1 0 3.4-1.8 7.3-6.1 13.2-1.6 2.2-2.9 4.5-2.9 5.1s-1.8 3.7-4 7c-2.2 3.2-4 6.4-4 7s-1.7 3.7-3.8 6.8c-2 3.2-5.5 8.7-7.7 12.3s-5.8 9.4-7.9 12.8c-7.2 11.4-6.7-.7-6.5 164.5.2 140.4.3 149.5 2 151.5l1.7 2.2 157.9.5c118.7.4 158.6.2 161-.7 1.7-.6 3.6-2 4.2-3.1 1.4-2.7 1.5-86.2.1-91.3-.6-1.9-2.1-4.6-3.5-5.9l-2.6-2.4-76.7-.3c-42.2-.2-77.7-.3-78.8-.3-1.2 0-3.2-.9-4.5-1.9l-2.4-1.9-.1-182.2-.2-182.3-2.8-2.8c-1.6-1.6-4.2-3-5.9-3.2-1.6-.2-25.7-.1-53.5.3m-156.3 36.1c-12.8 3.1-16.7 6.1-16.7 12.9.1 9 9.7 12.7 18.9 7.3 2.5-1.5 6-3.4 7.6-4.3 3.6-1.8 6.9-8.2 6-11.7-.5-2-5.9-6.4-7.5-6.2-.3 0-4 .9-8.3 2m12.7 239.7c-2.2 2.6-4.8 6.6-5.7 8.9-.9 2.4-3 6.2-4.7 8.4-1.6 2.3-3 4.7-3 5.3s-1.3 2.8-3 4.8c-1.6 2-3.8 5.6-4.9 8-1 2.4-2.6 5-3.5 5.8-1 .7-2.9 3.7-4.3 6.4-1.4 2.8-3.3 5.9-4.2 7-1.6 1.8-5.1 7.9-11.2 19.1-1.7 3.3-4.2 7.3-5.4 9-1.2 1.6-2.9 5-3.7 7.5s-2.7 6.2-4.1 8.3c-3.6 5.3-6 13.2-5.4 17.7 1.1 8.2 8.8 20.5 20.3 32.4 9.6 9.8 20 17.4 28.6 20.6 3.1 1.1 6.2 2.7 6.8 3.5 1.5 1.8 7.1 2.9 10.3 2.1l2.4-.6.3-84.7c.1-46.7.3-86.8.4-89.2 0-2.4-.3-4.6-.9-4.8-.5-.1-2.8 1.8-5.1 4.5m-78.1 193c-1.8 1.1-1.9 3.8-.6 11.7.7 3.8 1.5 10.8 1.9 15.4.6 8.3.7 8.5 5.1 13.2 5.1 5.5 8.6 6.7 13.4 4.6s9.9-7.2 9.9-9.9c0-2.3-5-10.6-11.4-18.8-13.1-16.7-14.9-18.3-18.3-16.2M432.2 676c-1.3.6-3.7 2-5.5 3.3s-4.4 2.9-5.9 3.7c-3.4 1.7-6.4 4.8-7.3 7.8-.5 1.8.1 3 3.2 5.8 2.1 1.9 4.8 3.7 6 4 6 1.6 10.7-3 11.9-11.6.3-2.5 1.5-5.9 2.5-7.6 3.5-5.8 1.5-7.9-4.9-5.4" />
</svg>