<svg xmlns="http://www.w3.org/2000/svg" viewBox="0 0 1426 359">
    <path
    fill="var(--color-brand-wash)" 
        d="M1058 48c-6.8 1.2-9.7 2.6-15.4 7.4-7.4 6.3-11.6 15-11.6 23.7 0 5.6.6 7.9 4 15.1 3.4 7.3 4.6 8.9 9.4 12.2 6.9 4.8 13 6.6 22 6.6 8.9 0 12.9-1.1 20.3-5.6 11.7-7 16.1-16.2 15-31.6-.6-9-2.4-12.6-9.5-18.9-9.7-8.5-20.3-11.3-34.2-8.9M50.4 50.4c-1.9.8-3.4 2.4-3.7 3.8-.4 1.4-.7 57.8-.7 125.4l-.1 122.9 2.2 1.7c2 1.7 6 1.8 53 1.8 54.1 0 68.1-.9 79.2-5 2.8-1 8.4-2.7 12.2-3.6 3.9-.9 8.8-2.6 11-3.7s6.3-3 9-4.1c14.2-5.9 35.3-24.3 41.1-35.9.9-1.8 2.4-4.1 3.4-5.2s2.8-4.5 3.9-7.5c1.2-3 3-7.2 4.2-9.2 2.6-4.9 6.6-26.2 7.9-42.3 1.6-19.9-2.3-54.3-7.5-65-1.3-2.8-3.3-7.5-4.5-10.7-1.1-3.1-2.8-6.2-3.6-6.9-.9-.7-2.6-3.3-3.9-5.8-3.7-7.4-21.1-24.2-29.2-28.5-1.8-.9-4.9-2.7-6.8-4-2-1.4-5.8-3.2-8.6-4.1-2.7-.9-6.9-2.8-9.3-4.1-2.3-1.3-9.4-3.5-15.6-4.9-6.3-1.5-11.7-2.8-12.1-3.1-.4-.2-7-1.1-14.6-1.9-19.1-2-102.3-2.1-106.9-.1m112.9 52.3c18.4 6.7 29 17.4 36 36.2 5 13.9 6.1 22.5 5.4 45.6-.4 16.2-.8 19.9-2.7 25-1.2 3.3-3.2 9.1-4.5 12.8-4.2 12-13.3 21.3-28.3 28.9-9.7 5-18.9 6.7-35.3 6.8-11 0-13-.2-15-1.9l-2.4-1.9v-76.5c0-66 .2-76.6 1.5-78.2s3-1.7 18-1.2c16.1.5 16.8.6 27.3 4.4m624.2-45.2c-15.1 7.6-26.4 17.3-32.7 28.2-2.5 4.3-4.9 8.9-5.3 10.3s-2.2 5.4-3.9 9c-1.8 3.6-3.8 8.7-4.5 11.4-.6 2.7-2.3 7.1-3.7 9.8s-3.4 7.9-4.5 11.4-2.8 7.9-3.9 9.7c-1 1.7-2.8 6.8-4 11.2-1.1 4.4-2.7 8.9-3.5 10.1-.7 1.1-2.2 4.9-3.3 8.5-1.1 3.5-3 8.6-4.1 11.2-2.6 5.9-2.7 9.3-.3 10.5.9.5 11.1 1.2 22.5 1.6 11.5.4 21.9 1.1 23.2 1.6 3.4 1.3 3.8 3.9 1.5 10.4-1.1 3.2-2.9 10.6-4 16.5-1.1 5.8-2.9 12.9-4 15.8s-2.9 10.5-4 17-2.9 14.9-4 18.8c-1 3.8-3 13.7-4.4 22-1.4 8.2-3.1 16.5-3.9 18.4-1.6 3.7-1.2 7.1.8 7.1 2.3 0 10.4-7.2 11.4-10.2.6-1.7 2.2-4.5 3.5-6.2s3.3-5.1 4.6-7.6 3.1-5.6 4.2-7c3.8-5.1 11-16.3 11.8-18.6.5-1.3 2.4-4.6 4.2-7.3 3.2-4.8 5.9-9.1 12.5-19.5 1.8-2.8 4.6-7.8 6.4-11.1 1.7-3.3 3.9-6.9 5-8 1-1.1 2.5-3.8 3.5-6 .9-2.2 2.6-5.4 3.8-7 1.3-1.7 3.6-5.7 5.3-9 1.6-3.3 3.9-7.8 5-10 5.3-10.1 8.6-17.3 10.2-22.6 1-3.1 2.8-7.1 4-8.7 2.6-3.8 2.7-7.6.1-10.2-1.9-1.9-3.3-2-29.3-2s-27.5-.1-29.2-2c-2.6-2.9-2.2-8.4 1.4-17.3 1.7-4.3 4-11.4 5.1-15.7s2.9-10 4.1-12.6c1.1-2.7 2.9-8.5 3.9-12.9s2.6-9.8 3.6-12c1.8-4.4 6.4-22 6.4-24.7 0-1.7-3.6-4.8-5.5-4.8-.5 0-3.2 1.2-6 2.5" />
    <path
        d="M685.5 60c-12.1.3-22.1.7-22.2.8-.2.1-1 1.3-1.9 2.6-1.4 2.2-1.5 13.5-1.4 114.5 0 75.3.4 113 1.1 115 .6 1.7 1.8 3.2 2.7 3.5 1 .3 12.7.6 26.2.8 21.9.3 24.9.1 27.2-1.4 3.5-2.3 4.3-5.2 7.3-25.9 1.4-10.3 3.5-20.3 4.9-24 5.4-14.7 5.5-21.1.3-23.7-2.6-1.4-13.5-2.8-27.2-3.7-17.3-1.2-20.2-2.8-18.9-10.3.9-5.6 4.1-15.6 6.2-19.9 1.1-2.1 2.9-7.2 4.2-11.3 1.2-4.1 2.6-8 3.1-8.6.4-.6 1.9-5.1 3.2-10 1.4-4.9 3.8-13.4 5.5-18.9 8.6-28 10.3-34.9 12.2-49 1.1-8.3 2.3-16.8 2.6-19.1 1.1-7.4-3.5-12.7-10.4-12.2-1.5.1-12.6.5-24.7.8m162.1 1.5c-2.5 2.5-2.7 6.4-2.4 39.8.4 37.3-.5 34.7 11.8 34.7 12.8 0 14.8 3.6 8.7 15.2-1.9 3.5-4 8.1-4.7 10.3s-2.2 5.8-3.5 8-2.9 5.9-3.6 8.3c-.6 2.3-2.7 5.9-4.5 8-1.7 2.1-3.7 5.6-4.3 7.7-.7 2.7-1.1 20-1.1 51.3v47.3l2.5 2.5 2.4 2.4 80-.2c75.3-.3 80.1-.4 81.8-2.1 1.6-1.6 1.8-4 1.9-22.5 0-22.6-.7-26.8-4.8-27.6-1.3-.3-17.5-.7-36.1-1.1-34.7-.6-38.4-1-41.5-4.8-1.6-1.9-1.7-35.2-.1-115.5 1-51.7.9-56.5-.6-58.8-.9-1.4-2.7-2.9-4.1-3.4-1.4-.6-18.4-1-39.4-1-31.8 0-37.1.2-38.4 1.5M1327.5 85c-2.2.5-10.7 1.3-19 2-21.5 1.6-23 1.9-25.4 4.1-2 1.9-2.1 2.9-2.1 18.5 0 14.5-.2 17-2 20.4-2.3 4.5-3.4 5-11.8 4.8-4.9-.1-7 .4-9 1.9-2.7 2-2.7 2.1-3 16.7l-.3 14.7 3 3c2.9 2.8 3.4 3 10.2 2.7 11.6-.5 11-2.9 11.3 44.3l.3 39.4 3.4 9.6c5.7 15.8 17.1 27.6 28.7 29.9 3.1.6 8.5 1.7 11.9 2.5 10.7 2.6 38.2 1.1 50-2.6 5.7-1.8 6.3-3.7 6.3-19.4 0-19 .4-18.5-14.8-18.5-13.2 0-15.8-.9-20.8-7.6l-2.9-3.7-.3-33.1c-.2-25.4.1-33.7 1.1-35.6 2.1-4.1 6.7-5.1 20.4-4.4 12.1.6 12.2.6 14.7-2 2.6-2.5 2.6-2.7 2.6-17.9s0-15.4-2.6-17.8c-2.4-2.3-3-2.4-14.6-2.1-21.6.5-22.1-.2-21.6-27.8.4-23.9-.1-24.7-13.7-22M540 131c-7.9 1.4-25.2 7.8-29.4 10.8-2.3 1.6-4.6 3.1-5.3 3.3-3.6 1.2-18.5 15.7-21 20.4-.8 1.6-2.4 4-3.6 5.2-1.1 1.3-3.7 8.1-5.8 15.4-3.8 12.9-3.9 13.6-3.9 29.3 0 11.5.4 17.7 1.5 21.6.9 3 2.4 8.4 3.4 12s2.5 7.8 3.5 9.5c5.1 9.1 8.8 14 15.6 20.5 10.8 10.3 23.1 16 43.3 20.1 18.3 3.6 27.5 3.7 49.8.5 20.9-3 27.4-4.8 33.5-9.5l4.9-3.7v-11.9c.1-6.8-.4-13.3-1.1-15.1-1.6-4.2-6.2-6.1-11.2-4.6-6 1.8-30.7 6.2-38.6 6.9-7.8.6-19.3-1.3-27-4.7-4.8-2-12.9-11.2-14.6-16.6-1.5-4.5.5-7.8 5.1-8.8 1.8-.3 24-.6 49.4-.6l46 .1 2.3-2.6c2.4-2.8 2.6-3.9 2.3-16.5-.3-13.1-2.8-27.6-5.7-33.9-1.4-3.1-3.2-7.4-4-9.5-.8-2.2-2.9-5.9-4.7-8.4-10-13.7-18-19.6-34.7-25.4-11.4-4-11.6-4-28.5-4.3-9.3-.2-19 0-21.5.5m26.1 36.1c8.8 1.9 16.1 10.8 17 20.9q.6 6.3-2.1 9c-1.9 1.9-3.3 2-22.7 2-11.5 0-21.3-.4-21.9-.8-5.2-3.4-4.4-14.3 1.5-21.3 1.1-1.3 2.9-3.5 3.9-4.8 1.2-1.6 4.1-3 8.8-4.2 8.4-2.2 8.9-2.2 15.5-.8m602.5-36.1c-2.7.5-7.2 1.8-10 2.8-2.8 1.1-7 2.7-9.2 3.5-5.7 2.2-14.3 8.8-19.2 14.9-4.7 5.7-10.2 20.8-10.2 28.1 0 5 4.4 23.6 6.5 27.8 2.2 4.2 13.2 14.7 18 17.1 2.2 1.1 5.1 2.9 6.5 3.8 1.4 1 5.7 2.8 9.5 4.1 3.9 1.2 9 3.2 11.5 4.4s6.9 3 9.8 4c4.4 1.4 5.6 2.3 7.2 5.5 2.6 5 2.5 8.1-.2 11.5-3.1 4-7.7 5.5-16.3 5.5-10.7 0-20-1.6-31.8-5.6-5.5-1.9-11.1-3.4-12.2-3.4-3.9 0-6.6 4.2-7.5 11.7-.4 3.7-1.4 9.6-2.1 13-1.3 6.1-1.2 6.3 1.2 8.9 3.8 4.2 9.6 6.2 24.5 8.5 17.3 2.6 38.4 2.8 54.4.5 14.4-2.1 14-1.9 23-6.4 8.6-4.2 20.8-15.2 23.5-21 1-2 2.7-5 3.9-6.7 1.7-2.4 2.1-4.8 2.4-13.3.5-12.1-.5-17-5.4-25-6.4-10.8-18.2-20.2-31.1-24.6-3.7-1.4-8.6-3.3-10.8-4.4-2.2-1-6.2-2.5-8.9-3.1-5.5-1.3-12.8-6-15.2-9.6-1.2-1.9-1.3-3.1-.5-6.3.6-2.1 1.9-4.6 3-5.6 3.3-3 12.8-4.1 25.2-2.9 9.3.9 12.2 1.7 17 4.2 11.1 5.8 12.4 4.6 16-15.1 3.3-18.4 2.3-20.2-14.7-24.5-8.8-2.3-12.3-2.6-31.4-2.9-11.8-.1-23.7.1-26.4.6m-876.4 3.6c-1.5.6-3.3 1.8-3.9 2.6-1.5 1.7-2.5 96.7-1.2 111.1 1.7 19.1 8.7 33.1 21.9 43.6 8.3 6.7 34.8 12.7 45.5 10.4 17.1-3.7 25.1-6.4 30.2-10 14.2-10.1 16.8-10.5 19.3-2.9s2.6 7.6 25.2 7.6c19.5 0 19.9 0 22.2-2.3l2.4-2.4-.2-76.7-.3-76.7-2.4-2.4c-2.4-2.4-2.5-2.4-26.5-2.6-16 0-24.9.3-26.2 1-5.3 2.8-5.2 1.9-5.2 53.6 0 55.8 0 55.9-7.9 63.6-6.7 6.5-16.8 8.7-24.4 5.5-4.3-1.7-10.5-9.1-11.2-13-.2-1.7-.6-26.1-.9-54.1-.2-28.1-.7-51.7-1.1-52.7-.3-.9-1.8-2.1-3.3-2.7-3.9-1.5-48.6-2-52-.5m745.4 2.6c-1.2 1.9-1.6 11.8-2 63.8-.6 70-.1 90.2 2.3 93 1.5 1.8 3.7 1.9 28.3 2.2 26.7.3 26.7.3 29-2l2.3-2.3.3-76.4.2-76.5-3-1.8c-2.7-1.7-5.8-1.9-29.4-2.1l-26.5-.2zM810.3 262.9c-4 2.5-5.4 5-5.6 10.2-.1 4.4 1.2 5.9 5.4 5.9 4.3 0 6.1-3 6.2-10.6.2-7.8-.7-8.7-6-5.5" />
</svg>